gui_paths_subject3_squats1_v3
version=1
nRows=6
nColumns=56
inDegrees=no
endheader
time	pelvis_tilt	pelvis_list	pelvis_rotation	pelvis_tx	pelvis_ty	pelvis_tz	hip_flexion_r	hip_adduction_r	hip_rotation_r	knee_angle_r	ankle_angle_r	subtalar_angle_r	mtp_angle_r	hip_flexion_l	hip_adduction_l	hip_rotation_l	knee_angle_l	ankle_angle_l	subtalar_angle_l	mtp_angle_l	lumbar_extension	lumbar_bending	lumbar_rotation	arm_flex_r	arm_add_r	arm_rot_r	elbow_flex_r	pro_sup_r	wrist_flex_r	wrist_dev_r	arm_flex_l	arm_add_l	arm_rot_l	elbow_flex_l	pro_sup_l	wrist_flex_l	wrist_dev_l	knee_angle_r_beta	knee_angle_l_beta	/forceset/M0_r/activation	/forceset/M1_r/activation	/forceset/M2_r/activation	/forceset/M3_r/activation	/forceset/M4_r/activation	/forceset/M5_r/activation	/forceset/M6_r/activation	/forceset/M7_r/activation	/forceset/M0_l/activation	/forceset/M1_l/activation	/forceset/M2_l/activation	/forceset/M3_l/activation	/forceset/M4_l/activation	/forceset/M5_l/activation	/forceset/M6_l/activation	/forceset/M7_l/activation
3.95494505	-0.70893786	0.02095844	-0.07351810	-0.34621100	0.64257007	-0.62517382	1.72681567	-0.27068715	-0.04795422	1.51213769	0.42199110	-0.01231940	0.00000720	1.74869564	-0.38081002	-0.01629182	1.53387133	0.43127963	0.00345376	-0.00001527	0.05799294	0.00729912	-0.06380019	0.81708338	-0.49134135	0.69177918	2.47263874	1.01824997	0.00045376	-0.00005525	0.77113612	-0.63985816	0.64520872	2.55581633	1.02109472	0.00085960	0.00030937	1.51213769	1.53387133	0.02006804	0.00000000	0.00000000	0.46351864	0.83808681	0.00000000	0.33403302	1.00000000	0.11154107	0.00000000	0.00000000	0.37402575	1.00000000	0.00000000	0.37933390	0.59244179
3.96483516	-0.70720680	0.02116698	-0.07602094	-0.34376855	0.64831744	-0.62475851	1.70893798	-0.26606471	-0.05316340	1.49302860	0.41881252	-0.01231940	0.00000720	1.73073260	-0.38276033	-0.02202288	1.51611618	0.42862275	0.00345376	-0.00001527	0.06828178	0.00727528	-0.06272889	0.80002356	-0.49145218	0.69361562	2.47143921	1.01825572	0.00045376	-0.00005525	0.74802140	-0.63828652	0.63979604	2.55919166	1.02108776	0.00085960	0.00030937	1.49302860	1.51611618	0.01023625	0.00000000	0.00000000	0.45038646	0.77856600	0.00000000	0.33032244	1.00000000	0.09946609	0.00000000	0.00000000	0.32881840	1.00000000	0.00000000	0.43684822	0.65732679
3.97472527	-0.70429893	0.02066916	-0.07813418	-0.34110677	0.65444147	-0.62440837	1.68861777	-0.26216267	-0.05907669	1.47290507	0.41568154	-0.01231940	0.00000720	1.71076656	-0.38426075	-0.02794660	1.49726068	0.42598260	0.00345376	-0.00001527	0.07767013	0.00806492	-0.06258148	0.78270823	-0.49176613	0.69555226	2.46948186	1.01826144	0.00045376	-0.00005525	0.72370245	-0.63690056	0.63464151	2.56242291	1.02108076	0.00085960	0.00030937	1.47290507	1.49726068	0.00000000	0.00000000	0.00000000	0.43416844	0.72320310	0.00000000	0.32916820	1.00000000	0.08622613	0.00000000	0.00000000	0.28349989	1.00000000	0.00000000	0.49405724	0.72216028
3.98461538	-0.69993968	0.02005831	-0.07895968	-0.33821942	0.66093036	-0.62421863	1.66611973	-0.26018795	-0.06473751	1.45230660	0.41256586	-0.01231940	0.00000720	1.68818676	-0.38402756	-0.03445374	1.47730243	0.42294907	0.00345376	-0.00001527	0.08576656	0.00881384	-0.06376949	0.76499366	-0.49314869	0.69828966	2.46764603	1.01826716	0.00045376	-0.00005525	0.69857590	-0.63582655	0.62991265	2.56556730	1.02107375	0.00085960	0.00030937	1.45230660	1.47730243	0.00000000	0.00000000	0.00000000	0.41770366	0.67569916	0.00000000	0.32906549	1.00000000	0.07228851	0.00000000	0.00000000	0.23885379	1.00000000	0.00000000	0.55028138	0.78660493
3.99450549	-0.69442715	0.02054317	-0.07900680	-0.33514984	0.66772310	-0.62412920	1.64254753	-0.25955893	-0.06899577	1.43140508	0.40910012	-0.01231940	0.00000720	1.66299620	-0.38253716	-0.04232302	1.45636852	0.41925926	0.00345376	-0.00001527	0.09294966	0.00810575	-0.06501352	0.74630530	-0.49535227	0.70154678	2.46665598	1.01827287	0.00045376	-0.00005525	0.67359458	-0.63444593	0.62543783	2.56813214	1.02106672	0.00085960	0.00030937	1.43140508	1.45636852	0.00000000	0.00000000	0.00000000	0.39898286	0.63314994	0.00000000	0.33112215	1.00000000	0.05813115	0.00000000	0.00000000	0.19556098	1.00000000	0.00000000	0.60489108	0.85026638
4.00439560	-0.68822035	0.02236036	-0.07952148	-0.33193104	0.67474275	-0.62403136	1.61863221	-0.25887773	-0.07175384	1.41015869	0.40504152	-0.01231940	0.00000720	1.63587656	-0.38133139	-0.05182831	1.43469019	0.41526150	0.00345376	-0.00001527	0.09986379	0.00594678	-0.06499283	0.72645626	-0.49732383	0.70437857	2.46609569	1.01827856	0.00045376	-0.00005525	0.64902869	-0.63230838	0.62114815	2.56964634	1.02105966	0.00085960	0.00030937	1.41015869	1.43469019	0.00000000	0.00000000	0.01111432	0.37333704	0.60436967	0.00000000	0.34034459	1.00000000	0.04416959	0.00000000	0.00000000	0.15415549	1.00000000	0.00000000	0.65733358	0.91269317
